<svg xmlns="http://www.w3.org/2000/svg" viewBox="0 0 1600 620" fill="none" aria-hidden="true">
  <defs><linearGradient id="signal" x1="0" y1="0" x2="1600" y2="0" gradientUnits="userSpaceOnUse"><stop stop-color="#00DBA8" stop-opacity="0"/><stop offset=".2" stop-color="#1EECAD" stop-opacity=".25"/><stop offset=".55" stop-color="#5BFFD3"/><stop offset="1" stop-color="#12F4AE" stop-opacity=".15"/></linearGradient><filter id="soft"><feGaussianBlur stdDeviation="10"/></filter></defs>
  <path id="trace-glow" d="M0 342c150-15 198 22 284 5 120-25 173-91 270-57 68 24 94 71 188 54 100-19 133-91 238-86 118 5 115 72 218 45 143-37 242-4 402-28" stroke="#22F5B4" stroke-width="16" opacity=".4" filter="url(#soft)"/>
  <path id="trace-stroke" d="M0 342c150-15 198 22 284 5 120-25 173-91 270-57 68 24 94 71 188 54 100-19 133-91 238-86 118 5 115 72 218 45 143-37 242-4 402-28" stroke="url(#signal)" stroke-width="2.5" stroke-linecap="round"/>
  <circle id="trace-pulse" cx="1198" cy="303" r="7" fill="#C7FFE8"/><circle cx="1198" cy="303" r="24" fill="#18EFB5" opacity=".14"/>
</svg>
